<svg id="Layer_1" data-name="Layer 1" xmlns="http://www.w3.org/2000/svg" width="1920" height="1080" viewBox="0 0 1920 1080"><defs><style>.cls-1,.cls-3{fill:#2ba5ba;}.cls-1,.cls-4{opacity:0.25;}.cls-2{fill:#fff38a;opacity:0.51;}.cls-3,.cls-8{opacity:0.18;}.cls-4{fill:#ff839f;}.cls-5,.cls-9{fill:#ffc79f;}.cls-6{fill:#f6b39f;}.cls-7{fill:#ffa69f;}.cls-8{fill:#006b9f;}.cls-9{stroke:#ffa69f;stroke-miterlimit:10;}.cls-10{fill:#fff;}.cls-11{fill:#fff3c9;}.cls-12{fill:#fff3d6;}.cls-13{fill:#ffd4c9;}.cls-14{fill:#3f0001;opacity:0.84;}</style></defs><title>splas_billede</title><rect class="cls-1" x="658" y="-179" width="603" height="1919" rx="12" transform="translate(1740 -179) rotate(90)"/><ellipse class="cls-2" cx="1638" cy="702" rx="490" ry="311"/><ellipse class="cls-2" cx="394" cy="326" rx="328" ry="272"/><ellipse class="cls-2" cx="643.78" cy="46.5" rx="36.78" ry="30.5"/><ellipse class="cls-3" cx="85.78" cy="561.5" rx="36.78" ry="30.5"/><rect class="cls-4" x="821" y="293" width="333" height="277" rx="12"/><path class="cls-1" d="M1203,822l-637,8c-6.6,0-14,0-18-6.65L384,635c0-7.22-1.6-21,5-21l630,6c6.6,0,11,5,18,13.12L1208,805C1210,807,1211,823,1203,822Z"/><rect class="cls-5" x="382" y="215" width="649" height="382" rx="12"/><path class="cls-6" d="M1208,813l-637,8c-6.6,0-14,0-18-6.65L389,626c0-7.22-1.6-21,5-21l630,6c6.6,0,11,5,18,13.12L1213,796C1215,798,1216,814,1208,813Z"/><path class="cls-5" d="M1199,803.25,573,811c-6.6,0-14,0-18-6.65L389,614.12c0-7.22,5.4-13.12,12-13.12h625c6.6,0,11,5,18,13.12L1211,792C1215,796,1217,803.25,1199,803.25Z"/><rect class="cls-4" x="260" y="28" width="250" height="509" rx="12"/><path class="cls-7" d="M476.72,619.63,418,620a8.92,8.92,0,0,1-3-1l-9-8.38c0-.34.47-.62,1.05-.62H467a5,5,0,0,1,2,1l8.76,8.1C478.11,619.29,478.29,619.63,476.72,619.63Z"/><path class="cls-7" d="M521.22,619.63,485.5,620a1.17,1.17,0,0,1-1-.32L475,610.62a.66.66,0,0,1,.68-.62h35.67c.37,0,.63.24,1,.62l9.52,8.48C522.13,619.29,522.25,619.63,521.22,619.63Z"/><path class="cls-7" d="M566.22,619.63,530.5,620a1.17,1.17,0,0,1-1-.32L520,610.62a.66.66,0,0,1,.68-.62h35.67c.37,0,.63.24,1,.62l9.52,8.48C567.13,619.29,567.25,619.63,566.22,619.63Z"/><path class="cls-7" d="M610.22,619.63,574.5,620a1.17,1.17,0,0,1-1-.32L564,610.62a.66.66,0,0,1,.68-.62h35.67c.37,0,.63.24,1,.62l9.52,8.48C611.13,619.29,611.25,619.63,610.22,619.63Z"/><path class="cls-7" d="M652.22,619.63,616.5,620a1.17,1.17,0,0,1-1-.32L606,610.62a.66.66,0,0,1,.68-.62h35.67c.37,0,.63.24,1,.62l9.52,8.48C653.13,619.29,653.25,619.63,652.22,619.63Z"/><path class="cls-7" d="M694.22,619.63,658.5,620a1.17,1.17,0,0,1-1-.32L648,610.62a.66.66,0,0,1,.68-.62h35.67c.37,0,.63.24,1,.62l9.52,8.48C695.13,619.29,695.25,619.63,694.22,619.63Z"/><path class="cls-7" d="M736.22,619.63,700.5,620a1.17,1.17,0,0,1-1-.32L690,610.62a.66.66,0,0,1,.68-.62h35.67c.37,0,.63.24,1,.62l9.52,8.48C737.13,619.29,737.25,619.63,736.22,619.63Z"/><path class="cls-7" d="M779.22,619.63,743.5,620a1.17,1.17,0,0,1-1-.32L733,610.62a.66.66,0,0,1,.68-.62h35.67c.37,0,.63.24,1,.62l9.52,8.48C780.13,619.29,780.25,619.63,779.22,619.63Z"/><path class="cls-7" d="M822.22,619.63,786.5,620a1.17,1.17,0,0,1-1-.32L776,610.62a.66.66,0,0,1,.68-.62h35.67c.37,0,.63.24,1,.62l9.52,8.48C823.13,619.29,823.25,619.63,822.22,619.63Z"/><path class="cls-7" d="M865.22,619.63,829.5,620a1.17,1.17,0,0,1-1-.32L819,610.62a.66.66,0,0,1,.68-.62h35.67c.37,0,.63.24,1,.62l9.52,8.48C866.13,619.29,866.25,619.63,865.22,619.63Z"/><path class="cls-7" d="M908.22,619.63,872.5,620a1.17,1.17,0,0,1-1-.32L862,610.62a.66.66,0,0,1,.68-.62h35.67c.37,0,.63.24,1,.62l9.52,8.48C909.13,619.29,909.25,619.63,908.22,619.63Z"/><path class="cls-7" d="M952.22,618.63,916.5,619a1.17,1.17,0,0,1-1-.32L906,609.62a.66.66,0,0,1,.68-.62h35.67c.37,0,.63.24,1,.62l9.52,8.48C953.13,618.29,953.25,618.63,952.22,618.63Z"/><path class="cls-7" d="M995.22,617.63,959.5,618a1.17,1.17,0,0,1-1-.32L949,608.62a.66.66,0,0,1,.68-.62h35.67c.37,0,.63.24,1,.62l9.52,8.48C996.13,617.29,996.25,617.63,995.22,617.63Z"/><path class="cls-7" d="M1037.22,616.63l-35.72.37a1.17,1.17,0,0,1-1-.32L991,607.62a.66.66,0,0,1,.68-.62h35.67c.37,0,.63.24,1,.62l9.52,8.48C1038.13,616.29,1038.25,616.63,1037.22,616.63Z"/><rect class="cls-8" x="427.9" y="238" width="570.85" height="336" rx="12"/><path class="cls-7" d="M472.22,639.63,435.5,640a1.17,1.17,0,0,1-1-.32L417,622.62a.66.66,0,0,1,.68-.62h35.67c.37,0,.63.24,1,.62L472.9,639.1C473.13,639.29,473.25,639.63,472.22,639.63Z"/><path class="cls-7" d="M516.22,639.63,479.5,640a1.17,1.17,0,0,1-1-.32L461,622.62a.66.66,0,0,1,.68-.62h35.67c.37,0,.63.24,1,.62L516.9,639.1C517.13,639.29,517.25,639.63,516.22,639.63Z"/><path class="cls-7" d="M559.22,639.63,522.5,640a1.17,1.17,0,0,1-1-.32L504,622.62a.66.66,0,0,1,.68-.62h35.67c.37,0,.63.24,1,.62L559.9,639.1C560.13,639.29,560.25,639.63,559.22,639.63Z"/><path class="cls-7" d="M602.22,639.63,565.5,640a1.17,1.17,0,0,1-1-.32L547,622.62a.66.66,0,0,1,.68-.62h35.67c.37,0,.63.24,1,.62L602.9,639.1C603.13,639.29,603.25,639.63,602.22,639.63Z"/><path class="cls-7" d="M644.22,639.63,607.5,640a1.17,1.17,0,0,1-1-.32L589,622.62a.66.66,0,0,1,.68-.62h35.67c.37,0,.63.24,1,.62L644.9,639.1C645.13,639.29,645.25,639.63,644.22,639.63Z"/><path class="cls-7" d="M688.22,639.63,651.5,640a1.17,1.17,0,0,1-1-.32L633,622.62a.66.66,0,0,1,.68-.62h35.67c.37,0,.63.24,1,.62L688.9,639.1C689.13,639.29,689.25,639.63,688.22,639.63Z"/><path class="cls-7" d="M731.22,639.63,694.5,640a1.17,1.17,0,0,1-1-.32L676,622.62a.66.66,0,0,1,.68-.62h35.67c.37,0,.63.24,1,.62L731.9,639.1C732.13,639.29,732.25,639.63,731.22,639.63Z"/><path class="cls-7" d="M774.22,639.63,737.5,640a1.17,1.17,0,0,1-1-.32L719,622.62a.66.66,0,0,1,.68-.62h35.67c.37,0,.63.24,1,.62L774.9,639.1C775.13,639.29,775.25,639.63,774.22,639.63Z"/><path class="cls-7" d="M818.22,639.63,781.5,640a1.17,1.17,0,0,1-1-.32L763,622.62a.66.66,0,0,1,.68-.62h35.67c.37,0,.63.24,1,.62L818.9,639.1C819.13,639.29,819.25,639.63,818.22,639.63Z"/><path class="cls-7" d="M862.22,639.63,825.5,640a1.17,1.17,0,0,1-1-.32L807,622.62a.66.66,0,0,1,.68-.62h35.67c.37,0,.63.24,1,.62L862.9,639.1C863.13,639.29,863.25,639.63,862.22,639.63Z"/><path class="cls-7" d="M906.22,639.63,869.5,640a1.17,1.17,0,0,1-1-.32L851,622.62a.66.66,0,0,1,.68-.62h35.67c.37,0,.63.24,1,.62L906.9,639.1C907.13,639.29,907.25,639.63,906.22,639.63Z"/><path class="cls-7" d="M949.22,638.63,912.5,639a1.17,1.17,0,0,1-1-.32L894,621.62a.66.66,0,0,1,.68-.62h35.67c.37,0,.63.24,1,.62L949.9,638.1C950.13,638.29,950.25,638.63,949.22,638.63Z"/><path class="cls-7" d="M994.22,638.63,957.5,639a1.17,1.17,0,0,1-1-.32L939,621.62a.66.66,0,0,1,.68-.62h35.67c.37,0,.63.24,1,.62L994.9,638.1C995.13,638.29,995.25,638.63,994.22,638.63Z"/><path class="cls-7" d="M1056.22,638.63l-53.72.37a1.17,1.17,0,0,1-1-.32L984,621.62a.66.66,0,0,1,.68-.62h55.67c.37,0,.63.24,1,.62l15.52,16.48C1057.13,638.29,1057.25,638.63,1056.22,638.63Z"/><path class="cls-7" d="M515.72,659.63,456,660a8.92,8.92,0,0,1-3-1l-16-16.38c0-.34.47-.62,1.05-.62H498a5,5,0,0,1,2,1l16.76,16.1C517.11,659.29,517.29,659.63,515.72,659.63Z"/><path class="cls-7" d="M553.22,722.63,516.5,723a1.17,1.17,0,0,1-1-.32L498,705.62a.66.66,0,0,1,.68-.62h35.67c.37,0,.63.24,1,.62L553.9,722.1C554.13,722.29,554.25,722.63,553.22,722.63Z"/><path class="cls-7" d="M559.22,659.63,522.5,660a1.17,1.17,0,0,1-1-.32L504,642.62a.66.66,0,0,1,.68-.62h35.67c.37,0,.63.24,1,.62L559.9,659.1C560.13,659.29,560.25,659.63,559.22,659.63Z"/><path class="cls-7" d="M600.22,659.63,563.5,660a1.17,1.17,0,0,1-1-.32L545,642.62a.66.66,0,0,1,.68-.62h35.67c.37,0,.63.24,1,.62L600.9,659.1C601.13,659.29,601.25,659.63,600.22,659.63Z"/><path class="cls-7" d="M641.22,659.63,604.5,660a1.17,1.17,0,0,1-1-.32L586,642.62a.66.66,0,0,1,.68-.62h35.67c.37,0,.63.24,1,.62L641.9,659.1C642.13,659.29,642.25,659.63,641.22,659.63Z"/><path class="cls-7" d="M683.22,659.63,646.5,660a1.17,1.17,0,0,1-1-.32L628,642.62a.66.66,0,0,1,.68-.62h35.67c.37,0,.63.24,1,.62L683.9,659.1C684.13,659.29,684.25,659.63,683.22,659.63Z"/><path class="cls-7" d="M544.72,680.63,476,681a8.92,8.92,0,0,1-3-1l-16-16.38c0-.34.47-.62,1.05-.62H527a5,5,0,0,1,2,1l16.76,16.1C546.11,680.29,546.29,680.63,544.72,680.63Z"/><path class="cls-7" d="M587.22,680.63,550.5,681a1.17,1.17,0,0,1-1-.32L532,663.62a.66.66,0,0,1,.68-.62h35.67c.37,0,.63.24,1,.62L587.9,680.1C588.13,680.29,588.25,680.63,587.22,680.63Z"/><path class="cls-7" d="M629.22,679.63,592.5,680a1.17,1.17,0,0,1-1-.32L574,662.62a.66.66,0,0,1,.68-.62h35.67c.37,0,.63.24,1,.62L629.9,679.1C630.13,679.29,630.25,679.63,629.22,679.63Z"/><path class="cls-7" d="M671.22,679.63,634.5,680a1.17,1.17,0,0,1-1-.32L616,662.62a.66.66,0,0,1,.68-.62h35.67c.37,0,.63.24,1,.62L671.9,679.1C672.13,679.29,672.25,679.63,671.22,679.63Z"/><path class="cls-7" d="M548.72,701.63,497,702a8.92,8.92,0,0,1-3-1l-16-16.38c0-.34.47-.62,1.05-.62H531a5,5,0,0,1,2,1l16.76,16.1C550.11,701.29,550.29,701.63,548.72,701.63Z"/><path class="cls-7" d="M726.22,659.63,689.5,660a1.17,1.17,0,0,1-1-.32L671,642.62a.66.66,0,0,1,.68-.62h35.67c.37,0,.63.24,1,.62L726.9,659.1C727.13,659.29,727.25,659.63,726.22,659.63Z"/><path class="cls-7" d="M768.22,659.63,731.5,660a1.17,1.17,0,0,1-1-.32L713,642.62a.66.66,0,0,1,.68-.62h35.67c.37,0,.63.24,1,.62L768.9,659.1C769.13,659.29,769.25,659.63,768.22,659.63Z"/><path class="cls-7" d="M714.22,679.63,677.5,680a1.17,1.17,0,0,1-1-.32L659,662.62a.66.66,0,0,1,.68-.62h35.67c.37,0,.63.24,1,.62L714.9,679.1C715.13,679.29,715.25,679.63,714.22,679.63Z"/><path class="cls-7" d="M810.22,659.63,773.5,660a1.17,1.17,0,0,1-1-.32L755,642.62a.66.66,0,0,1,.68-.62h35.67c.37,0,.63.24,1,.62L810.9,659.1C811.13,659.29,811.25,659.63,810.22,659.63Z"/><path class="cls-7" d="M756.22,679.63,719.5,680a1.17,1.17,0,0,1-1-.32L701,662.62a.66.66,0,0,1,.68-.62h35.67c.37,0,.63.24,1,.62L756.9,679.1C757.13,679.29,757.25,679.63,756.22,679.63Z"/><path class="cls-7" d="M593.22,700.63,556.5,701a1.17,1.17,0,0,1-1-.32L538,683.62a.66.66,0,0,1,.68-.62h35.67c.37,0,.63.24,1,.62L593.9,700.1C594.13,700.29,594.25,700.63,593.22,700.63Z"/><path class="cls-7" d="M636.22,700.63,599.5,701a1.17,1.17,0,0,1-1-.32L581,683.62a.66.66,0,0,1,.68-.62h35.67c.37,0,.63.24,1,.62L636.9,700.1C637.13,700.29,637.25,700.63,636.22,700.63Z"/><path class="cls-7" d="M678.22,699.63,641.5,700a1.17,1.17,0,0,1-1-.32L623,682.62a.66.66,0,0,1,.68-.62h35.67c.37,0,.63.24,1,.62L678.9,699.1C679.13,699.29,679.25,699.63,678.22,699.63Z"/><path class="cls-7" d="M596.22,722.63,559.5,723a1.17,1.17,0,0,1-1-.32L541,705.62a.66.66,0,0,1,.68-.62h35.67c.37,0,.63.24,1,.62L596.9,722.1C597.13,722.29,597.25,722.63,596.22,722.63Z"/><path class="cls-7" d="M637.22,721.63,600.5,722a1.17,1.17,0,0,1-1-.32L582,704.62a.66.66,0,0,1,.68-.62h35.67c.37,0,.63.24,1,.62L637.9,721.1C638.13,721.29,638.25,721.63,637.22,721.63Z"/><path class="cls-7" d="M680.22,720.63,643.5,721a1.17,1.17,0,0,1-1-.32L625,703.62a.66.66,0,0,1,.68-.62h35.67c.37,0,.63.24,1,.62L680.9,720.1C681.13,720.29,681.25,720.63,680.22,720.63Z"/><path class="cls-7" d="M893.22,720.63,686.5,721a1.17,1.17,0,0,1-1-.32L668,703.62a.66.66,0,0,1,.68-.62H874.35c.37,0,.63.24,1,.62L893.9,720.1C894.13,720.29,894.25,720.63,893.22,720.63Z"/><path class="cls-7" d="M722.22,699.63,685.5,700a1.17,1.17,0,0,1-1-.32L667,682.62a.66.66,0,0,1,.68-.62h35.67c.37,0,.63.24,1,.62L722.9,699.1C723.13,699.29,723.25,699.63,722.22,699.63Z"/><path class="cls-7" d="M765.22,699.63,728.5,700a1.17,1.17,0,0,1-1-.32L710,682.62a.66.66,0,0,1,.68-.62h35.67c.37,0,.63.24,1,.62L765.9,699.1C766.13,699.29,766.25,699.63,765.22,699.63Z"/><path class="cls-7" d="M808.22,699.63,771.5,700a1.17,1.17,0,0,1-1-.32L753,682.62a.66.66,0,0,1,.68-.62h35.67c.37,0,.63.24,1,.62L808.9,699.1C809.13,699.29,809.25,699.63,808.22,699.63Z"/><path class="cls-7" d="M799.22,679.63,762.5,680a1.17,1.17,0,0,1-1-.32L744,662.62a.66.66,0,0,1,.68-.62h35.67c.37,0,.63.24,1,.62L799.9,679.1C800.13,679.29,800.25,679.63,799.22,679.63Z"/><path class="cls-7" d="M934.22,719.63,897.5,720a1.17,1.17,0,0,1-1-.32L879,702.62a.66.66,0,0,1,.68-.62h35.67c.37,0,.63.24,1,.62L934.9,719.1C935.13,719.29,935.25,719.63,934.22,719.63Z"/><path class="cls-7" d="M852.22,659.63,815.5,660a1.17,1.17,0,0,1-1-.32L797,642.62a.66.66,0,0,1,.68-.62h35.67c.37,0,.63.24,1,.62L852.9,659.1C853.13,659.29,853.25,659.63,852.22,659.63Z"/><path class="cls-7" d="M894.22,659.63,857.5,660a1.17,1.17,0,0,1-1-.32L839,642.62a.66.66,0,0,1,.68-.62h35.67c.37,0,.63.24,1,.62L894.9,659.1C895.13,659.29,895.25,659.63,894.22,659.63Z"/><path class="cls-7" d="M841.22,679.63,804.5,680a1.17,1.17,0,0,1-1-.32L786,662.62a.66.66,0,0,1,.68-.62h35.67c.37,0,.63.24,1,.62L841.9,679.1C842.13,679.29,842.25,679.63,841.22,679.63Z"/><path class="cls-7" d="M851.22,699.63,814.5,700a1.17,1.17,0,0,1-1-.32L796,682.62a.66.66,0,0,1,.68-.62h35.67c.37,0,.63.24,1,.62L851.9,699.1C852.13,699.29,852.25,699.63,851.22,699.63Z"/><path class="cls-7" d="M894.22,699.63,857.5,700a1.17,1.17,0,0,1-1-.32L839,682.62a.66.66,0,0,1,.68-.62h35.67c.37,0,.63.24,1,.62L894.9,699.1C895.13,699.29,895.25,699.63,894.22,699.63Z"/><path class="cls-7" d="M883.22,679.63,846.5,680a1.17,1.17,0,0,1-1-.32L828,662.62a.66.66,0,0,1,.68-.62h35.67c.37,0,.63.24,1,.62L883.9,679.1C884.13,679.29,884.25,679.63,883.22,679.63Z"/><path class="cls-7" d="M937.22,659.63,900.5,660a1.17,1.17,0,0,1-1-.32L882,642.62a.66.66,0,0,1,.68-.62h35.67c.37,0,.63.24,1,.62L937.9,659.1C938.13,659.29,938.25,659.63,937.22,659.63Z"/><path class="cls-7" d="M925.22,679.63,888.5,680a1.17,1.17,0,0,1-1-.32L870,662.62a.66.66,0,0,1,.68-.62h35.67c.37,0,.63.24,1,.62L925.9,679.1C926.13,679.29,926.25,679.63,925.22,679.63Z"/><rect class="cls-8" x="587.07" y="125" width="846.1" height="326" rx="12"/><path class="cls-2" d="M652,1063.6l-344,6.75c-6.6,0-14,0-18-6.66L34,753.12C34,745.9,39.4,740,46,740l343,1c6.6,0,11,5,18,13.12l257,298.23C668,1056.35,670,1063.6,652,1063.6Z"/><path class="cls-7" d="M979.22,659.63,942.5,660a1.17,1.17,0,0,1-1-.32L924,642.62a.66.66,0,0,1,.68-.62h35.67c.37,0,.63.24,1,.62L979.9,659.1C980.13,659.29,980.25,659.63,979.22,659.63Z"/><path class="cls-7" d="M1021.22,658.63,984.5,659a1.17,1.17,0,0,1-1-.32L966,641.62a.66.66,0,0,1,.68-.62h35.67c.37,0,.63.24,1,.62l18.52,16.48C1022.13,658.29,1022.25,658.63,1021.22,658.63Z"/><path class="cls-7" d="M967.22,679.63,930.5,680a1.17,1.17,0,0,1-1-.32L912,662.62a.66.66,0,0,1,.68-.62h35.67c.37,0,.63.24,1,.62L967.9,679.1C968.13,679.29,968.25,679.63,967.22,679.63Z"/><path class="cls-7" d="M1010.22,679.63,973.5,680a1.17,1.17,0,0,1-1-.32L955,662.62a.66.66,0,0,1,.68-.62h35.67c.37,0,.63.24,1,.62l18.52,16.48C1011.13,679.29,1011.25,679.63,1010.22,679.63Z"/><path class="cls-7" d="M936.22,699.63,899.5,700a1.17,1.17,0,0,1-1-.32L881,682.62a.66.66,0,0,1,.68-.62h35.67c.37,0,.63.24,1,.62L936.9,699.1C937.13,699.29,937.25,699.63,936.22,699.63Z"/><path class="cls-7" d="M977.22,719.63,940.5,720a1.17,1.17,0,0,1-1-.32L922,702.62a.66.66,0,0,1,.68-.62h35.67c.37,0,.63.24,1,.62L977.9,719.1C978.13,719.29,978.25,719.63,977.22,719.63Z"/><path class="cls-7" d="M979.22,699.63,942.5,700a1.17,1.17,0,0,1-1-.32L924,682.62a.66.66,0,0,1,.68-.62h35.67c.37,0,.63.24,1,.62L979.9,699.1C980.13,699.29,980.25,699.63,979.22,699.63Z"/><path class="cls-7" d="M1034.22,719.63,997.5,720a1.17,1.17,0,0,1-1-.32L979,702.62a.66.66,0,0,1,.68-.62h35.67c.37,0,.63.24,1,.62l18.52,16.48C1035.13,719.29,1035.25,719.63,1034.22,719.63Z"/><path class="cls-7" d="M1022.22,699.63,985.5,700a1.17,1.17,0,0,1-1-.32L967,682.62a.66.66,0,0,1,.68-.62h35.67c.37,0,.63.24,1,.62l18.52,16.48C1023.13,699.29,1023.25,699.63,1022.22,699.63Z"/><path class="cls-7" d="M1078.22,711.63l-36.72.37a1.17,1.17,0,0,1-1-.32L1023,694.62a.66.66,0,0,1,.68-.62h35.67c.37,0,.63.24,1,.62l18.52,16.48C1079.13,711.29,1079.25,711.63,1078.22,711.63Z"/><path class="cls-9" d="M983.22,795.38,771.58,798c-2.23,0-4.74,0-6.09-2.25l-56.12-64.31a4.27,4.27,0,0,1,4-4.44H924.73c2.24,0,3.72,1.69,6.09,4.44l56.46,60.14C988.63,792.93,989.31,795.38,983.22,795.38Z"/><rect class="cls-4" x="457" y="266" width="186.34" height="234" rx="12"/><rect class="cls-4" x="796" y="485" width="186.34" height="69" rx="12"/><path class="cls-10" d="M677,1041.6l-344,6.75c-6.6,0-14,0-18-6.66L59,731.12C59,723.9,64.4,718,71,718l343,1c6.6,0,11,5,18,13.12l257,298.23C693,1034.35,695,1041.6,677,1041.6Z"/><ellipse class="cls-7" cx="881.5" cy="808" rx="45.5" ry="5"/><path class="cls-7" d="M1052.22,678.63l-36.72.37a1.17,1.17,0,0,1-1-.32L997,661.62a.66.66,0,0,1,.68-.62h35.67c.37,0,.63.24,1,.62l18.52,16.48C1053.13,678.29,1053.25,678.63,1052.22,678.63Z"/><rect class="cls-8" x="1577.1" y="817.9" width="489.15" height="37.36" rx="12" transform="translate(2658.25 -985.1) rotate(90)"/><ellipse class="cls-4" cx="1591" cy="492.5" rx="51" ry="44.5"/><rect class="cls-8" x="1557.55" y="904.34" width="314.26" height="37.36" rx="12" transform="translate(2637.7 -791.66) rotate(90)"/><ellipse class="cls-3" cx="1287.5" cy="1016.68" rx="24.5" ry="20.32"/><path class="cls-8" d="M419,759H131c-4.31,0-8-3-14-9l-9-10c-3-4-3.31-5,1-5H389c4.31,0,9-2,17,6l10,10C421.37,756.79,424.15,758.87,419,759Z"/><path class="cls-8" d="M451,800H163c-4.31,0-8-3-14-9l-9-10c-3-4-3.31-5,1-5H421c4.31,0,9-2,17,6l10,10C453.37,797.79,456.15,799.87,451,800Z"/><path class="cls-8" d="M291,840H194a16.23,16.23,0,0,1-13-8l-9-11c-4-5-1.64-5,0-5H275.85c1.61,0,3.15,0,8.15,7l8,9C298,839,292.91,839.87,291,840Z"/><rect class="cls-4" x="1603" y="-248" width="164" height="509" rx="12"/><ellipse class="cls-1" cx="1378" cy="736.5" rx="88" ry="44.5"/><path class="cls-11" d="M1532,541.18c0,75.35-2,219.82-139.21,219.82C1243.92,761,1243,616.53,1243,541.18"/><ellipse class="cls-12" cx="1386.5" cy="540.62" rx="144.5" ry="40.38"/><ellipse class="cls-13" cx="1381.5" cy="544" rx="114.5" ry="32"/><path class="cls-14" d="M1479,561s-34,16-101,15c-40-.6-99-14-99-18,0-15.13,37.26-29,100.5-29S1478,547,1479,561Z"/></svg>
