<?xml version="1.0" standalone="no"?>
<!DOCTYPE svg PUBLIC "-//W3C//DTD SVG 20010904//EN"
 "http://www.w3.org/TR/2001/REC-SVG-20010904/DTD/svg10.dtd">
<svg version="1.0" xmlns="http://www.w3.org/2000/svg"
 width="513.000000pt" height="513.000000pt" viewBox="0 0 513.000000 513.000000"
 preserveAspectRatio="xMidYMid meet">
<metadata>
Created by potrace 1.11, written by Peter Selinger 2001-2013
</metadata>
<g transform="translate(0.000000,513.000000) scale(0.100000,-0.100000)"
fill="#000000" stroke="none">
<path d="M2477 5094 c-1 -1 -48 -5 -104 -8 -57 -4 -113 -9 -125 -11 -13 -3
-43 -7 -68 -10 -56 -6 -146 -23 -185 -35 -16 -5 -44 -12 -60 -14 -43 -8 -272
-83 -322 -106 -24 -11 -45 -20 -49 -20 -3 0 -59 -27 -124 -60 -329 -165 -576
-362 -835 -665 -110 -129 -271 -392 -348 -569 -84 -191 -162 -450 -182 -600
-3 -27 -8 -52 -10 -56 -18 -29 -28 -502 -13 -645 41 -398 195 -816 422 -1150
122 -180 335 -412 496 -541 208 -168 463 -315 685 -397 144 -52 185 -67 207
-71 13 -3 64 -15 113 -27 105 -24 106 -24 165 -34 25 -4 54 -9 65 -11 64 -12
193 -19 360 -19 240 1 324 9 530 56 162 36 271 70 405 124 577 235 1056 688
1324 1250 81 170 160 401 191 560 19 95 34 188 41 245 10 88 11 478 1 565 -99
849 -606 1587 -1352 1968 -240 123 -512 213 -741 247 -43 6 -90 13 -103 15
-55 9 -377 25 -384 19z"/>
</g>
</svg>
