<?xml version="1.0" standalone="no"?>
<!DOCTYPE svg PUBLIC "-//W3C//DTD SVG 20010904//EN"
 "http://www.w3.org/TR/2001/REC-SVG-20010904/DTD/svg10.dtd">
<svg version="1.0" xmlns="http://www.w3.org/2000/svg"
 width="513.000000pt" height="513.000000pt" viewBox="0 0 513.000000 513.000000"
 preserveAspectRatio="xMidYMid meet">
<metadata>
Created by potrace 1.11, written by Peter Selinger 2001-2013
</metadata>
<g transform="translate(0.000000,513.000000) scale(0.100000,-0.100000)"
fill="#000000" stroke="none">
<path d="M2507 5074 c-1 -1 -49 -4 -107 -8 -58 -3 -116 -8 -130 -10 -14 -2
-46 -7 -71 -10 -68 -10 -99 -15 -149 -26 -25 -6 -54 -12 -65 -15 -72 -14 -252
-72 -352 -112 -796 -318 -1377 -1024 -1537 -1868 -38 -202 -43 -256 -44 -465
0 -203 13 -341 48 -520 28 -137 25 -127 45 -190 101 -319 192 -510 364 -760
139 -203 368 -436 566 -579 39 -27 75 -54 81 -59 28 -25 221 -135 314 -180
259 -125 523 -202 815 -236 113 -14 491 -15 555 -3 26 5 106 18 150 23 99 12
342 79 475 131 433 168 782 430 1100 825 114 141 270 419 341 606 62 164 112
337 130 452 3 19 7 42 9 50 2 8 7 34 10 57 3 23 8 57 11 75 10 59 12 491 3
553 -5 33 -11 83 -14 110 -15 134 -81 384 -147 553 -241 619 -721 1121 -1333
1392 -199 88 -451 161 -642 185 -26 4 -59 8 -73 11 -48 7 -347 23 -353 18z"/>
</g>
</svg>
