<svg id="Layer_1" data-name="Layer 1" xmlns="http://www.w3.org/2000/svg" width="415" height="150.55" viewBox="0 0 415 150.55"><defs><style>.cls-1{fill:#cbd0d3;}</style></defs><title>Artboard 10</title><path class="cls-1" d="M61,63.08c-.24,1.89-3,6-4.14,5.59-1-.35-2.72-4.9-3.4-7.39a35.93,35.93,0,0,1-1-9.19q0-13.14,7-27.19a30.72,30.72,0,0,1,6.72-9.49q3.74-3.36,7.25-3.36,4.64,0,7,5.42c1.54,3.61,2.44,8.7,1.67,15.62-1.65,14.75-3.21,23.72-6,31,46-31,61-14,61-14-4,1-11.24,5.51-16,3-17-9-47,16-47,16-4,10.11-10.41,30.06-15.94,38.81C51,119.06,46.49,123.23,40.54,128.06s-11.4,7.24-16.33,7.24A10.81,10.81,0,0,1,16,132.17q-3-3.15-3-8.59c0-2.79,1-5.75,2.24-9.16C18,107.06,24,101.07,29,96.07c10-10,36-26,40-28l3-11c2-7,4.07-26,4.07-30.31a21.44,21.44,0,0,0-1.27-8.26c-.85-2-2-3-3.51-3-2.15,0-4.31,1.53-6.5,4.6a38.55,38.55,0,0,0-5.38,11.72,49.5,49.5,0,0,0-2.1,14C57.31,53.26,61.27,61,61,63.08Zm7,9c-9,5-21,14.07-26,18-4.08,3.23-10.75,10.94-13,15a27.59,27.59,0,0,0-3.28,12.52,8.58,8.58,0,0,0,1.7,5.48,5.35,5.35,0,0,0,4.35,2.14q8.07,0,18.34-14.11a66.18,66.18,0,0,0,5.07-8.16q2.61-4.87,6-12.38C62.39,87.67,66.87,75.19,68,72.08Z"/><path class="cls-1" d="M81.38,99.73l3.53-4.16q2.78,6.56,8.82,6.55a7.72,7.72,0,0,0,5.39-2,6.28,6.28,0,0,0,2.23-4.76A5.28,5.28,0,0,0,100.28,92a37.52,37.52,0,0,0-5.1-4.66,31.29,31.29,0,0,1-5-4.75,6.53,6.53,0,0,1-1.29-4,9.5,9.5,0,0,1,1.73-5.48,13.34,13.34,0,0,1,10.74-5.61,7.77,7.77,0,0,1,4.76,1.42A4.31,4.31,0,0,1,108,72.52a4,4,0,0,1-2.45,4,7.24,7.24,0,0,0-2.24-4.63,6.88,6.88,0,0,0-4.76-1.67,6.66,6.66,0,0,0-4.5,1.67,4.91,4.91,0,0,0-1.92,3.81c0,1.76,1.09,3.51,3.27,5.23l3.66,3q5.35,4.22,5.35,8.63a11.08,11.08,0,0,1-1.86,6.14,13.39,13.39,0,0,1-5,4.56,14,14,0,0,1-6.71,1.7Q85.22,104.89,81.38,99.73Z"/><path class="cls-1" d="M147.85,66.54l-5.92,23a26.05,26.05,0,0,0-.94,5.92,6.31,6.31,0,0,0,.82,3.28,2.34,2.34,0,0,0,2,1.38q1.83,0,6.05-4.47l.88.88-.69.82a55.94,55.94,0,0,1-5.14,5.38,5.16,5.16,0,0,1-3.11,1.55,4.24,4.24,0,0,1-3.5-2.11,8.28,8.28,0,0,1-1.48-4.88,59.52,59.52,0,0,1,1.51-9.14l.5-2.39a46.56,46.56,0,0,1-6.23,10.39q-6.56,8.33-12.54,8.32a6.86,6.86,0,0,1-5.67-2.59A10.69,10.69,0,0,1,112.32,95a26.88,26.88,0,0,1,3.37-12.41,34.4,34.4,0,0,1,8.38-10.68q5-4.19,9.73-4.18a8.35,8.35,0,0,1,7.44,3.65l.69-2.4Zm-7.24,8.06a7.43,7.43,0,0,0-2.55-3.75,6.71,6.71,0,0,0-4.13-1.35,9.42,9.42,0,0,0-5.86,2.55,25.24,25.24,0,0,0-5.67,7.08A40.77,40.77,0,0,0,119,87.07a25.34,25.34,0,0,0-1.36,7.18,8.94,8.94,0,0,0,1.23,5,4,4,0,0,0,3.5,1.83c1.93,0,3.95-.91,6-2.71a32.82,32.82,0,0,0,6.24-7.75,29.38,29.38,0,0,0,3-5.79Q138.72,82,140,76.8Z"/><path class="cls-1" d="M170.92,18.23,177.59,15,159.45,92.68q11.34-25.32,22.24-25.32a6.88,6.88,0,0,1,3.94,1.16A7.68,7.68,0,0,1,188.34,72a12,12,0,0,1,1,4.79A29.36,29.36,0,0,1,187,87.35a35.52,35.52,0,0,1-5.73,10q-6.18,7.48-13.61,7.49a12.76,12.76,0,0,1-4.47-.79,21.64,21.64,0,0,1-4.79-2.61L154,104.08ZM159.45,97.34q2.84,5.91,8.13,5.92a9.74,9.74,0,0,0,7-3.28,28.7,28.7,0,0,0,5.77-9.51,49.35,49.35,0,0,0,2.39-7.65,31.3,31.3,0,0,0,1-6.58q0-5.92-4.16-5.92-2.78,0-6.3,3.4a43.74,43.74,0,0,0-7.09,9.48A99.09,99.09,0,0,0,159.45,97.34Z"/><path class="cls-1" d="M220.25,94l1.14.94a29.78,29.78,0,0,1-7.63,7.47,15,15,0,0,1-8,2.3,10.53,10.53,0,0,1-8.19-3.41,12.84,12.84,0,0,1-3.09-9,25.11,25.11,0,0,1,3-11.5,31.08,31.08,0,0,1,7.5-9.63q4.5-3.81,8.92-3.81a6.07,6.07,0,0,1,4.25,1.51,5,5,0,0,1,1.67,3.9q0,4.86-5.29,9.7t-14.43,8.25a9.82,9.82,0,0,0-.06,1.14,10.34,10.34,0,0,0,2.39,7.08,7.81,7.81,0,0,0,6.18,2.74,10.23,10.23,0,0,0,5.73-1.85A27.84,27.84,0,0,0,220.25,94Zm-20.16-4.79a33.81,33.81,0,0,0,10.46-6.74,23,23,0,0,0,4-5.41A11.65,11.65,0,0,0,216,71.83c0-2-.9-3-2.71-3q-4.09,0-8.29,6.45A31,31,0,0,0,200.09,89.21Z"/><path class="cls-1" d="M249.36,15,232.79,87.64l-.57,2.45A26.64,26.64,0,0,0,231.4,96a6.14,6.14,0,0,0,.73,3.18,2.09,2.09,0,0,0,1.79,1.23c1.31,0,3.38-1.55,6.24-4.66l1,.88-.63.69a60,60,0,0,1-5.29,5.7,5,5,0,0,1-3.15,1.48,4,4,0,0,1-3.31-2.11,8.37,8.37,0,0,1-1.42-4.81,34.06,34.06,0,0,1,.82-6l14.56-73.31Z"/><path class="cls-1" d="M268,15,251.38,87.64l-.57,2.45A26.05,26.05,0,0,0,250,96a6.14,6.14,0,0,0,.73,3.18,2.09,2.09,0,0,0,1.79,1.23q2,0,6.24-4.66l1,.88-.63.69a58.46,58.46,0,0,1-5.3,5.7,5,5,0,0,1-3.15,1.48,4,4,0,0,1-3.3-2.11A8.37,8.37,0,0,1,246,97.53a34.06,34.06,0,0,1,.82-6l14.55-73.31Z"/><path class="cls-1" d="M298.44,66.54l-5.92,23a26.05,26.05,0,0,0-.94,5.92,6.31,6.31,0,0,0,.82,3.28,2.34,2.34,0,0,0,2,1.38q1.83,0,6-4.47l.88.88-.69.82a55.94,55.94,0,0,1-5.14,5.38,5.16,5.16,0,0,1-3.11,1.55,4.24,4.24,0,0,1-3.5-2.11,8.28,8.28,0,0,1-1.48-4.88,59.52,59.52,0,0,1,1.51-9.14l.5-2.39A46.56,46.56,0,0,1,283.2,96.2q-6.56,8.33-12.54,8.32a6.86,6.86,0,0,1-5.67-2.59A10.69,10.69,0,0,1,262.91,95a26.88,26.88,0,0,1,3.37-12.41,34.4,34.4,0,0,1,8.38-10.68q5-4.19,9.73-4.18a8.35,8.35,0,0,1,7.44,3.65l.69-2.4ZM291.2,74.6a7.43,7.43,0,0,0-2.55-3.75,6.71,6.71,0,0,0-4.13-1.35,9.42,9.42,0,0,0-5.86,2.55A25.24,25.24,0,0,0,273,79.13a40.77,40.77,0,0,0-3.37,7.94,25.34,25.34,0,0,0-1.36,7.18,8.94,8.94,0,0,0,1.23,5,4,4,0,0,0,3.5,1.83c1.93,0,3.95-.91,6.05-2.71a32.82,32.82,0,0,0,6.24-7.75,29.38,29.38,0,0,0,3-5.79q1.06-2.9,2.39-8.07Z"/><path class="cls-1" d="M353.2,25.35l6.49-3L359.5,24c-.13,1.26-.23,2.3-.31,3.12s-.17,1.46-.26,1.92l-.75,5s-.09.59-.26,1.64a110.7,110.7,0,0,1,10.43-9.26,51,51,0,0,1,9.42-6,18.7,18.7,0,0,1,7.75-1.95A7.38,7.38,0,0,1,391.41,21a10.26,10.26,0,0,1,2.18,6.93q0,5-3.37,11.18a61.29,61.29,0,0,1-9.61,12.75A75.82,75.82,0,0,1,368.32,62.7c1.34-.09,2.1-.13,2.27-.13a15.73,15.73,0,0,1,11.15,4,13.6,13.6,0,0,1,4.35,10.46,24.48,24.48,0,0,1-3.72,12.66c-2.48,4.15-10.68,13.49-15.05,16.47-4.83,3.32-33.95,25.46-87.71,33.94-48.24,7.62-96.8-17.7-99-19.8,0,0,13.53-4.85,17-2.83C279.61,165.59,351.17,111.92,356,109c14.14-8.48,18.58-14.72,20.53-18.52a26.18,26.18,0,0,0,2.93-12.18,15.42,15.42,0,0,0-1.48-7,10.74,10.74,0,0,0-4.19-4.53,12.24,12.24,0,0,0-6.36-1.61,17.39,17.39,0,0,0-4.22.63l.63-3.08a58.24,58.24,0,0,0,11-8.29,60.6,60.6,0,0,0,9-10.61q4.86-7.3,4.85-13.35a8.6,8.6,0,0,0-1.92-5.86,6.39,6.39,0,0,0-5.07-2.2q-5.67,0-14.62,7.37a67.87,67.87,0,0,0-9.7,9.63l-.19,1.14q-1,6.86-2.87,14.89T349.83,72.3q-2.62,8.85-5.2,16.09-3,8.44-5.86,12.51c-1.89,2.7-3.76,4.06-5.61,4.06-2.85,0-4.28-2.4-4.28-7.18a55.86,55.86,0,0,1,1.79-12.32,106.78,106.78,0,0,1,4.51-14.39q6.48-16.56,16-27.52.57-3.72,1.14-8.82Q353,28.57,353.2,25.35Zm-2.65,22a83.17,83.17,0,0,0-9.17,14.3,105.16,105.16,0,0,0-9.76,27.65,43.77,43.77,0,0,0-1,7.93c0,2.65.65,4,1.95,4,.93,0,1.81-.7,2.65-2a41.4,41.4,0,0,0,3.15-6.65q1-2.52,2.33-6.36t2.43-7.4q1.1-3.55,2.39-8.34t1.92-7.44Q349.67,53.7,350.55,47.39Z"/><path class="cls-1" d="M406,98.34a6.27,6.27,0,0,1-1.61,4.32,5,5,0,0,1-3.81,1.79q-4.41,0-4.41-4.41a6.46,6.46,0,0,1,2.74-5.38,4.59,4.59,0,0,1,2.68-.85,4.22,4.22,0,0,1,3.21,1.26A4.55,4.55,0,0,1,406,98.34Z"/></svg>