<svg id="Layer_1" data-name="Layer 1" xmlns="http://www.w3.org/2000/svg" xmlns:xlink="http://www.w3.org/1999/xlink" width="51" height="51" viewBox="0 0 51 51"><defs><style>.cls-1{fill:none;}.cls-2{clip-path:url(#clip-path);}.cls-3{fill:#fff;fill-rule:evenodd;}</style><clipPath id="clip-path"><rect class="cls-1" width="51" height="51"/></clipPath></defs><title>insta_ikon</title><g class="cls-2"><g id="instagram"><path id="Path_3" data-name="Path 3" class="cls-3" d="M25.5,4.53a77.2,77.2,0,0,1,10.2.29,13,13,0,0,1,4.82.85,10,10,0,0,1,4.81,4.81,13,13,0,0,1,.85,4.82c0,2.55.29,3.4.29,10.2a77.2,77.2,0,0,1-.29,10.2,13,13,0,0,1-.85,4.82,10,10,0,0,1-4.81,4.81,13,13,0,0,1-4.82.85c-2.55,0-3.4.29-10.2.29a77.2,77.2,0,0,1-10.2-.29,13,13,0,0,1-4.82-.85,10,10,0,0,1-4.81-4.81,13,13,0,0,1-.85-4.82c0-2.55-.29-3.4-.29-10.2a77.2,77.2,0,0,1,.29-10.2,13,13,0,0,1,.85-4.82,10,10,0,0,1,2-2.83,4.74,4.74,0,0,1,2.83-2,13,13,0,0,1,4.82-.85,77.2,77.2,0,0,1,10.2-.29M25.5,0A85.21,85.21,0,0,0,15,.28,17.54,17.54,0,0,0,8.78,1.42,11.14,11.14,0,0,0,4.25,4.25,11.08,11.08,0,0,0,1.42,8.78,13,13,0,0,0,.28,15,85.21,85.21,0,0,0,0,25.5,85.21,85.21,0,0,0,.28,36a17.5,17.5,0,0,0,1.14,6.24,11.08,11.08,0,0,0,2.83,4.53,11.14,11.14,0,0,0,4.53,2.83A17.54,17.54,0,0,0,15,50.72,83.28,83.28,0,0,0,25.5,51,85.21,85.21,0,0,0,36,50.72a17.5,17.5,0,0,0,6.24-1.14,11.87,11.87,0,0,0,7.36-7.36A17.54,17.54,0,0,0,50.72,36c0-2.83.28-3.68.28-10.48A85.21,85.21,0,0,0,50.72,15a17.5,17.5,0,0,0-1.14-6.24,11.08,11.08,0,0,0-2.83-4.53,11.14,11.14,0,0,0-4.53-2.83A17.54,17.54,0,0,0,36,.28,85.21,85.21,0,0,0,25.5,0m0,12.47a12.81,12.81,0,0,0-13,12.61,2.94,2.94,0,0,0,0,.42,13,13,0,1,0,13-13h0M25.5,34A8.34,8.34,0,0,1,17,25.81V25.5A8.34,8.34,0,0,1,25.19,17h.31A8.34,8.34,0,0,1,34,25.19v.31A8.34,8.34,0,0,1,25.81,34H25.5M39.1,8.78a3.12,3.12,0,1,0,3.12,3.12h0A3.16,3.16,0,0,0,39.1,8.78"/></g></g></svg>
