<svg id="Layer_1" data-name="Layer 1" xmlns="http://www.w3.org/2000/svg" xmlns:xlink="http://www.w3.org/1999/xlink" width="78" height="79" viewBox="0 0 78 79"><defs><style>.cls-1,.cls-3,.cls-4,.cls-5{fill:none;}.cls-2{clip-path:url(#clip-path);}.cls-3{stroke:#898080;}.cls-3,.cls-4,.cls-5{stroke-miterlimit:10;}.cls-4,.cls-5{stroke:#cbd0d3;stroke-width:4px;}.cls-5{stroke-linecap:round;}.cls-6{fill:#cbd0d3;}</style><clipPath id="clip-path"><rect class="cls-1" x="-521" y="3.95" width="50.8" height="44.23"/></clipPath></defs><title>kalender_ikon</title><g class="cls-2"><g id="Arrow_Back" data-name="Arrow Back"><rect class="cls-3" x="11" y="21" width="59" height="53" rx="12"/></g></g><rect class="cls-4" x="8" y="24" width="62" height="50" rx="12"/><line class="cls-5" x1="20.02" y1="13" x2="20.02" y2="24"/><line class="cls-5" x1="56.21" y1="13" x2="56.21" y2="24"/><path class="cls-6" d="M21.19,42.22h3.4a8.87,8.87,0,0,1,2.28.25,4.12,4.12,0,0,1,1.72.92,6.52,6.52,0,0,1,2,5.24,9.79,9.79,0,0,1-.21,2.11,6.11,6.11,0,0,1-.62,1.73,5.49,5.49,0,0,1-1.08,1.38,4.37,4.37,0,0,1-1.14.74,5.19,5.19,0,0,1-1.32.4,9.6,9.6,0,0,1-1.59.11h-3.4a2.19,2.19,0,0,1-1.08-.21,1,1,0,0,1-.47-.61,4,4,0,0,1-.11-1V43.82A1.68,1.68,0,0,1,20,42.6,1.68,1.68,0,0,1,21.19,42.22Zm1,2.06V53h2a9.23,9.23,0,0,0,1,0,3.07,3.07,0,0,0,.76-.17,2,2,0,0,0,.69-.4c.87-.73,1.31-2,1.31-3.81a5.59,5.59,0,0,0-.58-2.86A2.57,2.57,0,0,0,26,44.54a7.05,7.05,0,0,0-2-.26Z"/><path class="cls-6" d="M38.8,54a7.53,7.53,0,0,1-1.69,1,4.8,4.8,0,0,1-1.82.33A3.46,3.46,0,0,1,33.67,55a2.62,2.62,0,0,1-1.46-2.34,2.4,2.4,0,0,1,.63-1.68A3.08,3.08,0,0,1,34.55,50l1.14-.24c.6-.12,1.12-.24,1.55-.34s.89-.23,1.4-.37a2.57,2.57,0,0,0-.38-1.4,1.75,1.75,0,0,0-1.41-.44,2.92,2.92,0,0,0-1.37.26,2.2,2.2,0,0,0-.79.76c-.22.34-.38.56-.47.67s-.28.16-.58.16a1,1,0,0,1-.7-.25.86.86,0,0,1-.3-.67,2,2,0,0,1,.45-1.23,3.16,3.16,0,0,1,1.4-1,6.23,6.23,0,0,1,2.36-.39,6.66,6.66,0,0,1,2.49.37,2.31,2.31,0,0,1,1.28,1.19A5.14,5.14,0,0,1,41,49.25v1.43c0,.4,0,.83,0,1.31a4.8,4.8,0,0,0,.22,1.41,4.34,4.34,0,0,1,.22,1,.88.88,0,0,1-.34.67,1.18,1.18,0,0,1-.79.3,1,1,0,0,1-.73-.34A5.16,5.16,0,0,1,38.8,54Zm-.16-3.47a12.62,12.62,0,0,1-1.54.41l-1.39.31a1.92,1.92,0,0,0-.74.4,1,1,0,0,0-.35.82,1.23,1.23,0,0,0,.42.93,1.53,1.53,0,0,0,1.08.38,2.78,2.78,0,0,0,1.31-.31,2,2,0,0,0,.88-.81,3.61,3.61,0,0,0,.33-1.79Z"/><path class="cls-6" d="M43.11,45.78h.27V44.34c0-.39,0-.69,0-.91a1.27,1.27,0,0,1,.17-.57,1.1,1.1,0,0,1,.4-.4,1.2,1.2,0,0,1,1.42.19,1,1,0,0,1,.31.56,5.33,5.33,0,0,1,.07.93v1.64h.87a1.14,1.14,0,0,1,.78.24.8.8,0,0,1,.27.62.71.71,0,0,1-.38.68,2.5,2.5,0,0,1-1.1.19h-.44v4.41q0,.57,0,.87a.89.89,0,0,0,.22.49.69.69,0,0,0,.55.19,3.13,3.13,0,0,0,.58-.08,2.8,2.8,0,0,1,.56-.07.73.73,0,0,1,.52.23.78.78,0,0,1,.23.58,1,1,0,0,1-.63.89,4.37,4.37,0,0,1-1.82.3,3.13,3.13,0,0,1-1.7-.37,1.76,1.76,0,0,1-.76-1.05,7.11,7.11,0,0,1-.18-1.78V47.51h-.32a1.1,1.1,0,0,1-.79-.25.8.8,0,0,1-.27-.62.77.77,0,0,1,.28-.62A1.26,1.26,0,0,1,43.11,45.78Z"/><path class="cls-6" d="M58.33,50.45a5.7,5.7,0,0,1-.33,2A4.16,4.16,0,0,1,57,54a4.24,4.24,0,0,1-1.51,1,5.34,5.34,0,0,1-2,.34,5.14,5.14,0,0,1-2-.35,4.29,4.29,0,0,1-1.5-1,4.37,4.37,0,0,1-1-1.55,5.66,5.66,0,0,1-.33-2,5.56,5.56,0,0,1,.34-2,4.44,4.44,0,0,1,1-1.55,4.33,4.33,0,0,1,1.51-1,5.21,5.21,0,0,1,2-.35,5.41,5.41,0,0,1,2,.35,4.28,4.28,0,0,1,1.52,1,4.34,4.34,0,0,1,1,1.55A5.71,5.71,0,0,1,58.33,50.45Zm-2.4,0a3.63,3.63,0,0,0-.65-2.29,2.12,2.12,0,0,0-1.74-.82,2.08,2.08,0,0,0-1.23.37,2.27,2.27,0,0,0-.83,1.07,4.49,4.49,0,0,0-.29,1.67,4.18,4.18,0,0,0,.29,1.64,2.38,2.38,0,0,0,.81,1.08,2.12,2.12,0,0,0,1.25.37,2.09,2.09,0,0,0,1.74-.82A3.6,3.6,0,0,0,55.93,50.45Z"/></svg>
