<svg id="Layer_1" data-name="Layer 1" xmlns="http://www.w3.org/2000/svg" width="528.16" height="147.96" viewBox="0 0 528.16 147.96"><defs><style>.cls-1{fill:#fff;}</style></defs><title>logo_2</title><path class="cls-1" d="M48,62c-.24,1.89-3,6-4.14,5.59-1-.35-2.72-4.9-3.4-7.4a35.87,35.87,0,0,1-1-9.19q0-13.14,7-27.2a30.72,30.72,0,0,1,6.72-9.49Q56.86,11,60.38,11q4.63,0,6.95,5.42C68.87,20,69.77,25.07,69,32c-1.65,14.75-3.21,23.73-6,31,46-31,61-14,61-14-4,1-11.24,5.52-16,3C91,43,61,68,61,68c-4,10.11-10.41,30.08-15.94,38.82C38,118,33.49,122.17,27.54,127s-11.4,7.25-16.33,7.25A10.81,10.81,0,0,1,3,131.11c-2-2.09-3-5-3-8.59,0-2.79,1-5.75,2.24-9.16C5,106,11,100,16,95,26.05,85,52,69,56,67l3-11c2-7,4.07-26,4.07-30.33a21.44,21.44,0,0,0-1.27-8.26q-1.27-3-3.51-2.95c-2.15,0-4.31,1.53-6.5,4.6a38.5,38.5,0,0,0-5.38,11.73,49.5,49.5,0,0,0-2.1,14C44.31,52.17,48.27,59.89,48,62Zm7,9c-9,5-21,14.08-26,18-4.08,3.23-10.75,11-13,15a27.62,27.62,0,0,0-3.28,12.52,8.59,8.59,0,0,0,1.7,5.49,5.35,5.35,0,0,0,4.35,2.14q8.07,0,18.34-14.12a65.43,65.43,0,0,0,5.07-8.16q2.61-4.87,6-12.38C49.39,86.59,53.87,74.11,55,71Z"/><path class="cls-1" d="M68.38,98.66l3.53-4.16q2.78,6.56,8.82,6.56a7.73,7.73,0,0,0,5.39-2,6.28,6.28,0,0,0,2.23-4.76,5.28,5.28,0,0,0-1.07-3.34,36.85,36.85,0,0,0-5.1-4.66,31.24,31.24,0,0,1-5-4.76,6.51,6.51,0,0,1-1.29-4A9.52,9.52,0,0,1,77.61,72,13.27,13.27,0,0,1,88.35,66.4a7.77,7.77,0,0,1,4.76,1.42A4.31,4.31,0,0,1,95,71.44a4,4,0,0,1-2.45,4,7.24,7.24,0,0,0-2.24-4.63,6.88,6.88,0,0,0-4.76-1.67,6.66,6.66,0,0,0-4.5,1.67,4.93,4.93,0,0,0-1.92,3.81q0,2.66,3.27,5.23l3.66,3q5.35,4.23,5.35,8.64a11.08,11.08,0,0,1-1.86,6.14,13.5,13.5,0,0,1-5,4.57,14.08,14.08,0,0,1-6.71,1.7Q72.22,103.83,68.38,98.66Z"/><path class="cls-1" d="M134.85,65.46l-5.92,23.06a26.05,26.05,0,0,0-.94,5.92,6.31,6.31,0,0,0,.82,3.28,2.34,2.34,0,0,0,2,1.38q1.83,0,6.05-4.47l.88.88-.69.82a57.62,57.62,0,0,1-5.14,5.39,5.14,5.14,0,0,1-3.11,1.54,4.24,4.24,0,0,1-3.5-2.11,8.26,8.26,0,0,1-1.48-4.88,59.52,59.52,0,0,1,1.51-9.14l.5-2.39a46.56,46.56,0,0,1-6.23,10.39q-6.56,8.33-12.54,8.32a6.88,6.88,0,0,1-5.67-2.58,10.7,10.7,0,0,1-2.08-6.93,27,27,0,0,1,3.37-12.42,34.52,34.52,0,0,1,8.38-10.68q5-4.19,9.73-4.19a8.36,8.36,0,0,1,7.44,3.66l.69-2.4Zm-7.24,8.06a7.43,7.43,0,0,0-2.55-3.75,6.71,6.71,0,0,0-4.13-1.35A9.42,9.42,0,0,0,115.07,71a25.15,25.15,0,0,0-5.67,7.09A40.51,40.51,0,0,0,106,86a25.34,25.34,0,0,0-1.36,7.18,8.94,8.94,0,0,0,1.23,5,4,4,0,0,0,3.5,1.83q2.89,0,6-2.71a32.82,32.82,0,0,0,6.24-7.75,29.18,29.18,0,0,0,3-5.8q1.06-2.9,2.39-8.06Z"/><path class="cls-1" d="M157.92,17.13l6.67-3.21L146.45,91.6q11.34-25.32,22.24-25.32a6.88,6.88,0,0,1,3.94,1.16,7.66,7.66,0,0,1,2.71,3.44,12,12,0,0,1,1,4.78A29.36,29.36,0,0,1,174,86.28a35.66,35.66,0,0,1-5.73,10q-6.18,7.5-13.61,7.5a13,13,0,0,1-4.47-.79,22.15,22.15,0,0,1-4.79-2.62L141,103ZM146.45,96.27q2.84,5.92,8.13,5.92a9.74,9.74,0,0,0,7-3.28,28.7,28.7,0,0,0,5.77-9.51,49.14,49.14,0,0,0,2.39-7.66,31.21,31.21,0,0,0,1-6.58q0-5.93-4.16-5.92-2.78,0-6.3,3.4a44,44,0,0,0-7.09,9.48A99.76,99.76,0,0,0,146.45,96.27Z"/><path class="cls-1" d="M207.25,92.93l1.14.94a29.61,29.61,0,0,1-7.63,7.47,15,15,0,0,1-8,2.3,10.52,10.52,0,0,1-8.19-3.4,12.89,12.89,0,0,1-3.09-9,25.08,25.08,0,0,1,3-11.5,31,31,0,0,1,7.5-9.64q4.5-3.81,8.92-3.81a6.07,6.07,0,0,1,4.25,1.51,5,5,0,0,1,1.67,3.9q0,4.86-5.29,9.71t-14.43,8.25a9.82,9.82,0,0,0-.06,1.14,10.34,10.34,0,0,0,2.39,7.08,7.82,7.82,0,0,0,6.18,2.75,10.16,10.16,0,0,0,5.73-1.86A27.84,27.84,0,0,0,207.25,92.93Zm-20.16-4.79a34,34,0,0,0,10.46-6.74,23.05,23.05,0,0,0,4-5.42A11.62,11.62,0,0,0,203,70.75c0-2-.9-3-2.71-3q-4.09,0-8.29,6.46A30.9,30.9,0,0,0,187.09,88.14Z"/><path class="cls-1" d="M236.36,13.92,219.79,86.56,219.22,89a26.64,26.64,0,0,0-.82,5.86,6.14,6.14,0,0,0,.73,3.18,2.09,2.09,0,0,0,1.79,1.23c1.31,0,3.38-1.55,6.24-4.66l1,.88-.63.69a61.86,61.86,0,0,1-5.29,5.71,5.06,5.06,0,0,1-3.15,1.48,4,4,0,0,1-3.31-2.11,8.43,8.43,0,0,1-1.42-4.82,34.06,34.06,0,0,1,.82-6l14.56-73.34Z"/><path class="cls-1" d="M255,13.92,238.38,86.56,237.81,89a26.05,26.05,0,0,0-.82,5.86,6.14,6.14,0,0,0,.73,3.18,2.09,2.09,0,0,0,1.79,1.23q2,0,6.24-4.66l1,.88-.63.69a60.18,60.18,0,0,1-5.3,5.71,5,5,0,0,1-3.15,1.48,4,4,0,0,1-3.3-2.11A8.43,8.43,0,0,1,233,96.46a34.06,34.06,0,0,1,.82-6l14.55-73.34Z"/><path class="cls-1" d="M285.44,65.46l-5.92,23.06a26.05,26.05,0,0,0-.94,5.92,6.31,6.31,0,0,0,.82,3.28,2.34,2.34,0,0,0,2,1.38q1.83,0,6-4.47l.88.88-.69.82a57.62,57.62,0,0,1-5.14,5.39,5.14,5.14,0,0,1-3.11,1.54,4.24,4.24,0,0,1-3.5-2.11,8.26,8.26,0,0,1-1.48-4.88,59.52,59.52,0,0,1,1.51-9.14l.5-2.39a46.56,46.56,0,0,1-6.23,10.39q-6.56,8.33-12.54,8.32a6.88,6.88,0,0,1-5.67-2.58,10.7,10.7,0,0,1-2.08-6.93,27,27,0,0,1,3.37-12.42,34.52,34.52,0,0,1,8.38-10.68q5-4.19,9.73-4.19a8.36,8.36,0,0,1,7.44,3.66l.69-2.4Zm-7.24,8.06a7.43,7.43,0,0,0-2.55-3.75,6.71,6.71,0,0,0-4.13-1.35A9.42,9.42,0,0,0,265.66,71,25.15,25.15,0,0,0,260,78.06,40.51,40.51,0,0,0,256.62,86a25.34,25.34,0,0,0-1.36,7.18,8.94,8.94,0,0,0,1.23,5,4,4,0,0,0,3.5,1.83q2.89,0,6.05-2.71a32.82,32.82,0,0,0,6.24-7.75,29.18,29.18,0,0,0,3-5.8q1.06-2.9,2.39-8.06Z"/><path class="cls-1" d="M340.2,24.25l6.49-3-.19,1.63c-.13,1.26-.23,2.3-.31,3.12s-.17,1.46-.26,1.92l-.75,5c0,.05-.09.59-.26,1.64a113.6,113.6,0,0,1,10.43-9.26,51,51,0,0,1,9.42-6,18.7,18.7,0,0,1,7.75-1.95,7.38,7.38,0,0,1,5.89,2.52,10.26,10.26,0,0,1,2.18,6.93q0,5-3.37,11.19a61.59,61.59,0,0,1-9.61,12.76,76.18,76.18,0,0,1-12.29,10.83l2.27-.12a15.73,15.73,0,0,1,11.15,4A13.6,13.6,0,0,1,373.09,76a24.48,24.48,0,0,1-3.72,12.66c-2.48,4.16-10.68,13.5-15.05,16.49-4.83,3.31-33.95,25.46-87.71,34-48.24,7.62-96.8-17.71-99-19.81,0,0,13.53-4.85,17-2.83,82.05,48.1,153.61-5.58,158.45-8.48,14.14-8.49,18.58-14.73,20.53-18.53a26.2,26.2,0,0,0,2.93-12.19,15.42,15.42,0,0,0-1.48-7,10.74,10.74,0,0,0-4.19-4.53,12.24,12.24,0,0,0-6.36-1.61,17.39,17.39,0,0,0-4.22.63l.63-3.09a57.74,57.74,0,0,0,11-8.28,60.66,60.66,0,0,0,9-10.62q4.86-7.3,4.85-13.36a8.62,8.62,0,0,0-1.92-5.86,6.39,6.39,0,0,0-5.07-2.2q-5.67,0-14.62,7.37a67.89,67.89,0,0,0-9.7,9.64l-.19,1.13q-1,6.87-2.87,14.91t-4.47,16.88q-2.62,8.85-5.2,16.1-3,8.45-5.86,12.51t-5.61,4.06q-4.28,0-4.28-7.18a55.86,55.86,0,0,1,1.79-12.32A106.48,106.48,0,0,1,322.18,70q6.48-16.56,16-27.53.57-3.72,1.14-8.82Q340,27.46,340.2,24.25Zm-2.65,22a83.56,83.56,0,0,0-9.17,14.3,104.53,104.53,0,0,0-7.08,17.21,102.39,102.39,0,0,0-2.68,10.46,43.77,43.77,0,0,0-1,7.93c0,2.65.65,4,1.95,4,.93,0,1.81-.7,2.65-2a41.4,41.4,0,0,0,3.15-6.65q1-2.52,2.33-6.36t2.43-7.41q1.1-3.55,2.39-8.34c.86-3.2,1.5-5.67,1.92-7.44Q336.67,52.6,337.55,46.3Z"/><path class="cls-1" d="M377,90.61a22.49,22.49,0,0,1,2.91-10.78,25.94,25.94,0,0,1,7.54-8.73,15.85,15.85,0,0,1,9.43-3.37A10.58,10.58,0,0,1,405,71.07a12.16,12.16,0,0,1,3.09,8.61,23.63,23.63,0,0,1-2.85,11.17,26,26,0,0,1-7.51,8.86,15.7,15.7,0,0,1-9.4,3.45,10.59,10.59,0,0,1-8.23-3.45A13,13,0,0,1,377,90.61Zm25.7-13.21a9.57,9.57,0,0,0-1.77-5.94,5.46,5.46,0,0,0-4.53-2.35,8.33,8.33,0,0,0-4.84,1.63,15.74,15.74,0,0,0-4.23,4.74,35.89,35.89,0,0,0-3.57,8.41,30.68,30.68,0,0,0-1.41,8.52q0,4.45,1.74,6.85a5.78,5.78,0,0,0,5,2.4q5.24,0,9.19-7.26a36.46,36.46,0,0,0,3.24-8.35A34.55,34.55,0,0,0,402.66,77.4Z"/><path class="cls-1" d="M425,67l-5.28,19.76a31.45,31.45,0,0,0-1.32,7.81,6.45,6.45,0,0,0,.66,3.12,2,2,0,0,0,1.74,1.2q1.86,0,5.94-4.44l1,.84-.6.66a57.51,57.51,0,0,1-5,5.43,4.76,4.76,0,0,1-3,1.41,3.75,3.75,0,0,1-3.16-1.89,8.17,8.17,0,0,1-1.29-4.71,35.42,35.42,0,0,1,.72-5.71l3.79-21Zm1.74-23.54a3.52,3.52,0,0,1,2.46,6,3.35,3.35,0,0,1-2.46,1A3.7,3.7,0,0,1,423.2,47a3.35,3.35,0,0,1,1-2.46A3.39,3.39,0,0,1,426.74,43.47Z"/><path class="cls-1" d="M427.4,98.3l3.37-4q2.64,6.26,8.4,6.25a7.37,7.37,0,0,0,5.14-2,6,6,0,0,0,2.13-4.54,5,5,0,0,0-1-3.18,35.81,35.81,0,0,0-4.87-4.44,29.92,29.92,0,0,1-4.77-4.53,6.25,6.25,0,0,1-1.23-3.82,9,9,0,0,1,1.65-5.22,12.64,12.64,0,0,1,10.24-5.35A7.42,7.42,0,0,1,451,68.9a4.15,4.15,0,0,1,1.83,3.46,3.76,3.76,0,0,1-2.34,3.78,6.86,6.86,0,0,0-2.13-4.41,6.52,6.52,0,0,0-4.53-1.59,6.34,6.34,0,0,0-4.3,1.59,4.72,4.72,0,0,0-1.83,3.63q0,2.52,3.12,5l3.49,2.83q5.1,4,5.1,8.22a10.59,10.59,0,0,1-1.77,5.86,12.78,12.78,0,0,1-4.8,4.35,13.43,13.43,0,0,1-6.4,1.62Q431.07,103.22,427.4,98.3Z"/><path class="cls-1" d="M481.45,92.83l1.08.9a28.32,28.32,0,0,1-7.27,7.12,14.23,14.23,0,0,1-7.62,2.19,10,10,0,0,1-7.81-3.24,12.29,12.29,0,0,1-2.94-8.59,23.91,23.91,0,0,1,2.85-11,29.47,29.47,0,0,1,7.14-9.18q4.31-3.64,8.5-3.64a5.8,5.8,0,0,1,4.05,1.44A4.83,4.83,0,0,1,481,72.6q0,4.62-5,9.24a41.56,41.56,0,0,1-13.75,7.87,8.77,8.77,0,0,0-.06,1.08,9.91,9.91,0,0,0,2.28,6.76,7.47,7.47,0,0,0,5.89,2.61,9.68,9.68,0,0,0,5.46-1.77A26.47,26.47,0,0,0,481.45,92.83Zm-19.22-4.56a32.1,32.1,0,0,0,10-6.43A21.9,21.9,0,0,0,476,76.68a11,11,0,0,0,1.44-5c0-1.88-.86-2.83-2.58-2.83q-3.9,0-7.9,6.16A29.53,29.53,0,0,0,462.23,88.27Z"/><path class="cls-1" d="M487.27,102.74l6.37-33.26,5.7-2.47-5.16,22q5-10.5,9.9-16t9.43-5.47a4.71,4.71,0,0,1,3.6,1.47A5.56,5.56,0,0,1,518.5,73a16.76,16.76,0,0,1-.67,3.9l-.6,2.52-1.8,7.33-.6,2.34a24.72,24.72,0,0,0-.9,5.53,6.27,6.27,0,0,0,.66,3.09,2,2,0,0,0,1.74,1.17c1.24,0,3.23-1.48,5.95-4.44l1,.84-.6.66a55.92,55.92,0,0,1-5,5.43,4.76,4.76,0,0,1-3,1.41,3.75,3.75,0,0,1-3.15-1.89,8.17,8.17,0,0,1-1.29-4.71,33.48,33.48,0,0,1,.72-5.71l2.34-12.73a31.27,31.27,0,0,0,.48-4.2,2.6,2.6,0,0,0-.66-1.92,2.43,2.43,0,0,0-1.8-.66q-4.14,0-10.21,8.88a57.09,57.09,0,0,0-4.86,8.44,113.2,113.2,0,0,0-4.33,11.56l-.54,1.62Z"/></svg>
