<svg id="Layer_1" data-name="Layer 1" xmlns="http://www.w3.org/2000/svg" xmlns:xlink="http://www.w3.org/1999/xlink" width="56.8" height="47.23" viewBox="0 0 56.8 47.23"><defs><style>.cls-1{fill:none;}.cls-2{clip-path:url(#clip-path);}.cls-3{fill:#898080;}</style><clipPath id="clip-path"><rect class="cls-1" x="3" y="1" width="50.8" height="44.23"/></clipPath></defs><title>pil_ikon</title><g class="cls-2"><g id="Arrow_Back" data-name="Arrow Back"><path id="Arrow_Back-2" data-name="Arrow Back-2" class="cls-3" d="M52.42,20.35H18.74a1.37,1.37,0,0,1-.9-2.41l13.81-12a1.38,1.38,0,0,0,0-2.08l-2.35-2a1.37,1.37,0,0,0-1.8,0L4.19,22.08a1.38,1.38,0,0,0,0,2.08L27.5,44.45a1.37,1.37,0,0,0,1.8,0l2.35-2.05a1.37,1.37,0,0,0,0-2.07l-13.81-12a1.38,1.38,0,0,1,.9-2.42H52.42a1.37,1.37,0,0,0,1.38-1.37V21.73A1.38,1.38,0,0,0,52.42,20.35Z"/></g></g></svg>
