<svg id="Layer_1" data-name="Layer 1" xmlns="http://www.w3.org/2000/svg" xmlns:xlink="http://www.w3.org/1999/xlink" width="57.17" height="55" viewBox="0 0 57.17 55"><defs><style>.cls-1,.cls-3,.cls-4{fill:none;}.cls-2{clip-path:url(#clip-path);}.cls-3,.cls-4{stroke:#cbd0d3;stroke-miterlimit:10;stroke-width:2px;}.cls-4{stroke-linecap:round;}</style><clipPath id="clip-path"><rect class="cls-1" x="2" y="6" width="54.17" height="42"/></clipPath></defs><title>portefolie_ikon</title><g class="cls-2"><g id="laptop-icon"><path id="path" class="cls-3" d="M51.14,35.17H6.8V9.27a2.1,2.1,0,0,1,2.1-2.1H49a2.1,2.1,0,0,1,2.1,2.1Z"/><path id="path-2" class="cls-3" d="M51.14,35.17H6.8L3.3,44a2.06,2.06,0,0,0,1.18,2.66,1.81,1.81,0,0,0,.69.14H53a2,2,0,0,0,2-2.1,2.13,2.13,0,0,0-.14-.7Z"/><line id="line" class="cls-4" x1="25.47" y1="42.17" x2="32.47" y2="42.17"/></g></g></svg>
