<svg id="Layer_1" data-name="Layer 1" xmlns="http://www.w3.org/2000/svg" width="57" height="57" viewBox="0 0 57 57"><defs><style>.cls-1{fill:none;}.cls-2{fill:#cbd0d3;}</style></defs><title>telf_ikon</title><rect class="cls-1" x="21" y="2" width="5" height="15" rx="2.5"/><path class="cls-2" d="M19,2V17s3.45,1.55,6-1c1-1,0-10,0-12S19,1,19,2Z"/><path class="cls-2" d="M18,2V17s-5,3-3,6S28,42,28,42s2.18,2.41,7,0c2-1,17,11,17,11s-7,3-12,3c-4.12,0-11,1-23-11S3,23,3,18,3,8,6,6,9,3,18,2Z"/><path class="cls-2" d="M53,52,37,41s4-2,6-1,11,5,12,7S53,52,53,52Z"/></svg>
